<mxfile host="app.diagrams.net" modified="2022-02-14T15:16:04.626Z" agent="5.0 (Windows NT 10.0; Win64; x64) AppleWebKit/537.36 (KHTML, like Gecko) Chrome/98.0.4758.82 Safari/537.36" etag="_xaYKbbBEUybPWcdvT6D" version="16.5.6" type="github">
  <diagram id="C5RBs43oDa-KdzZeNtuy" name="Page-1">
    <mxGraphModel dx="1902" dy="997" grid="1" gridSize="10" guides="1" tooltips="1" connect="1" arrows="1" fold="1" page="1" pageScale="1" pageWidth="827" pageHeight="1169" math="0" shadow="0">
      <root>
        <mxCell id="WIyWlLk6GJQsqaUBKTNV-0" />
        <mxCell id="WIyWlLk6GJQsqaUBKTNV-1" parent="WIyWlLk6GJQsqaUBKTNV-0" />
        <mxCell id="h3Knv5n8pHwy7ARHDvC1-7" value="" style="rounded=0;orthogonalLoop=1;jettySize=auto;html=1;elbow=vertical;exitX=0.435;exitY=1.059;exitDx=0;exitDy=0;exitPerimeter=0;" parent="WIyWlLk6GJQsqaUBKTNV-1" source="h3Knv5n8pHwy7ARHDvC1-5" target="h3Knv5n8pHwy7ARHDvC1-6" edge="1">
          <mxGeometry relative="1" as="geometry" />
        </mxCell>
        <mxCell id="h3Knv5n8pHwy7ARHDvC1-5" value="String" style="shape=parallelogram;html=1;strokeWidth=2;perimeter=parallelogramPerimeter;whiteSpace=wrap;rounded=1;arcSize=12;size=0.23;" parent="WIyWlLk6GJQsqaUBKTNV-1" vertex="1">
          <mxGeometry x="300" y="30" width="100" height="60" as="geometry" />
        </mxCell>
        <mxCell id="h3Knv5n8pHwy7ARHDvC1-9" value="" style="edgeStyle=none;rounded=0;orthogonalLoop=1;jettySize=auto;html=1;elbow=vertical;" parent="WIyWlLk6GJQsqaUBKTNV-1" source="h3Knv5n8pHwy7ARHDvC1-6" target="h3Knv5n8pHwy7ARHDvC1-8" edge="1">
          <mxGeometry relative="1" as="geometry" />
        </mxCell>
        <mxCell id="h3Knv5n8pHwy7ARHDvC1-19" value="" style="edgeStyle=none;rounded=0;orthogonalLoop=1;jettySize=auto;html=1;elbow=vertical;" parent="WIyWlLk6GJQsqaUBKTNV-1" source="h3Knv5n8pHwy7ARHDvC1-6" target="h3Knv5n8pHwy7ARHDvC1-18" edge="1">
          <mxGeometry relative="1" as="geometry" />
        </mxCell>
        <mxCell id="h3Knv5n8pHwy7ARHDvC1-6" value="Array" style="whiteSpace=wrap;html=1;strokeWidth=2;rounded=1;arcSize=12;" parent="WIyWlLk6GJQsqaUBKTNV-1" vertex="1">
          <mxGeometry x="280" y="130" width="120" height="60" as="geometry" />
        </mxCell>
        <mxCell id="h3Knv5n8pHwy7ARHDvC1-13" value="" style="edgeStyle=none;rounded=0;orthogonalLoop=1;jettySize=auto;html=1;elbow=vertical;" parent="WIyWlLk6GJQsqaUBKTNV-1" source="h3Knv5n8pHwy7ARHDvC1-8" target="h3Knv5n8pHwy7ARHDvC1-12" edge="1">
          <mxGeometry relative="1" as="geometry" />
        </mxCell>
        <mxCell id="h3Knv5n8pHwy7ARHDvC1-8" value="get A[] Length" style="whiteSpace=wrap;html=1;strokeWidth=2;rounded=1;arcSize=12;" parent="WIyWlLk6GJQsqaUBKTNV-1" vertex="1">
          <mxGeometry x="280" y="230" width="120" height="60" as="geometry" />
        </mxCell>
        <mxCell id="h3Knv5n8pHwy7ARHDvC1-15" value="" style="edgeStyle=none;rounded=0;orthogonalLoop=1;jettySize=auto;html=1;elbow=vertical;" parent="WIyWlLk6GJQsqaUBKTNV-1" source="h3Knv5n8pHwy7ARHDvC1-12" target="h3Knv5n8pHwy7ARHDvC1-14" edge="1">
          <mxGeometry relative="1" as="geometry" />
        </mxCell>
        <mxCell id="h3Knv5n8pHwy7ARHDvC1-12" value="Set counter i = 1" style="whiteSpace=wrap;html=1;strokeWidth=2;rounded=1;arcSize=12;" parent="WIyWlLk6GJQsqaUBKTNV-1" vertex="1">
          <mxGeometry x="280" y="320" width="120" height="60" as="geometry" />
        </mxCell>
        <mxCell id="h3Knv5n8pHwy7ARHDvC1-17" value="" style="edgeStyle=none;rounded=0;orthogonalLoop=1;jettySize=auto;html=1;elbow=vertical;" parent="WIyWlLk6GJQsqaUBKTNV-1" source="h3Knv5n8pHwy7ARHDvC1-14" target="h3Knv5n8pHwy7ARHDvC1-16" edge="1">
          <mxGeometry relative="1" as="geometry" />
        </mxCell>
        <mxCell id="h3Knv5n8pHwy7ARHDvC1-14" value="Set Position N = 0" style="whiteSpace=wrap;html=1;strokeWidth=2;rounded=1;arcSize=12;" parent="WIyWlLk6GJQsqaUBKTNV-1" vertex="1">
          <mxGeometry x="280" y="410" width="120" height="60" as="geometry" />
        </mxCell>
        <mxCell id="h3Knv5n8pHwy7ARHDvC1-21" value="" style="edgeStyle=none;rounded=0;orthogonalLoop=1;jettySize=auto;html=1;elbow=vertical;" parent="WIyWlLk6GJQsqaUBKTNV-1" source="h3Knv5n8pHwy7ARHDvC1-16" target="h3Knv5n8pHwy7ARHDvC1-20" edge="1">
          <mxGeometry relative="1" as="geometry" />
        </mxCell>
        <mxCell id="h3Knv5n8pHwy7ARHDvC1-16" value="is&amp;nbsp;&lt;span style=&quot;text-align: left&quot;&gt;A[n]+i &amp;lt; length?&lt;/span&gt;" style="rhombus;whiteSpace=wrap;html=1;strokeWidth=2;rounded=1;arcSize=12;" parent="WIyWlLk6GJQsqaUBKTNV-1" vertex="1">
          <mxGeometry x="300" y="494.5" width="80" height="80" as="geometry" />
        </mxCell>
        <mxCell id="h3Knv5n8pHwy7ARHDvC1-18" value="blank Array" style="shape=parallelogram;perimeter=parallelogramPerimeter;whiteSpace=wrap;html=1;fixedSize=1;strokeWidth=2;rounded=1;arcSize=12;" parent="WIyWlLk6GJQsqaUBKTNV-1" vertex="1">
          <mxGeometry x="620" y="130" width="120" height="60" as="geometry" />
        </mxCell>
        <mxCell id="h3Knv5n8pHwy7ARHDvC1-23" value="" style="edgeStyle=none;rounded=0;orthogonalLoop=1;jettySize=auto;html=1;elbow=vertical;" parent="WIyWlLk6GJQsqaUBKTNV-1" source="h3Knv5n8pHwy7ARHDvC1-20" target="h3Knv5n8pHwy7ARHDvC1-22" edge="1">
          <mxGeometry relative="1" as="geometry" />
        </mxCell>
        <mxCell id="h3Knv5n8pHwy7ARHDvC1-27" value="" style="edgeStyle=none;rounded=0;orthogonalLoop=1;jettySize=auto;html=1;elbow=vertical;" parent="WIyWlLk6GJQsqaUBKTNV-1" source="h3Knv5n8pHwy7ARHDvC1-20" target="h3Knv5n8pHwy7ARHDvC1-26" edge="1">
          <mxGeometry relative="1" as="geometry" />
        </mxCell>
        <mxCell id="h3Knv5n8pHwy7ARHDvC1-20" value="is&amp;nbsp;&lt;span style=&quot;font-size: 12pt&quot;&gt; A[n] === A[n + i]?&lt;/span&gt;" style="rhombus;whiteSpace=wrap;html=1;strokeWidth=2;rounded=1;arcSize=12;" parent="WIyWlLk6GJQsqaUBKTNV-1" vertex="1">
          <mxGeometry x="300" y="620" width="80" height="80" as="geometry" />
        </mxCell>
        <mxCell id="h3Knv5n8pHwy7ARHDvC1-25" value="" style="edgeStyle=none;rounded=0;orthogonalLoop=1;jettySize=auto;html=1;elbow=vertical;" parent="WIyWlLk6GJQsqaUBKTNV-1" source="h3Knv5n8pHwy7ARHDvC1-22" target="h3Knv5n8pHwy7ARHDvC1-24" edge="1">
          <mxGeometry relative="1" as="geometry" />
        </mxCell>
        <mxCell id="h3Knv5n8pHwy7ARHDvC1-22" value="Dupe Process" style="whiteSpace=wrap;html=1;strokeWidth=2;rounded=1;arcSize=12;" parent="WIyWlLk6GJQsqaUBKTNV-1" vertex="1">
          <mxGeometry x="280" y="740" width="120" height="60" as="geometry" />
        </mxCell>
        <mxCell id="h3Knv5n8pHwy7ARHDvC1-24" value="write ) to N &amp;amp; N+i" style="whiteSpace=wrap;html=1;strokeWidth=2;rounded=1;arcSize=12;" parent="WIyWlLk6GJQsqaUBKTNV-1" vertex="1">
          <mxGeometry x="440" y="740" width="120" height="60" as="geometry" />
        </mxCell>
        <mxCell id="h3Knv5n8pHwy7ARHDvC1-29" value="" style="edgeStyle=none;rounded=0;orthogonalLoop=1;jettySize=auto;html=1;elbow=vertical;" parent="WIyWlLk6GJQsqaUBKTNV-1" source="h3Knv5n8pHwy7ARHDvC1-26" target="h3Knv5n8pHwy7ARHDvC1-28" edge="1">
          <mxGeometry relative="1" as="geometry" />
        </mxCell>
        <mxCell id="h3Knv5n8pHwy7ARHDvC1-31" value="" style="edgeStyle=none;rounded=0;orthogonalLoop=1;jettySize=auto;html=1;elbow=vertical;" parent="WIyWlLk6GJQsqaUBKTNV-1" source="h3Knv5n8pHwy7ARHDvC1-26" target="h3Knv5n8pHwy7ARHDvC1-30" edge="1">
          <mxGeometry relative="1" as="geometry" />
        </mxCell>
        <mxCell id="h3Knv5n8pHwy7ARHDvC1-26" value="Non dupe process" style="whiteSpace=wrap;html=1;strokeWidth=2;rounded=1;arcSize=12;" parent="WIyWlLk6GJQsqaUBKTNV-1" vertex="1">
          <mxGeometry x="440" y="630" width="120" height="60" as="geometry" />
        </mxCell>
        <mxCell id="h3Knv5n8pHwy7ARHDvC1-33" style="edgeStyle=none;rounded=0;orthogonalLoop=1;jettySize=auto;html=1;elbow=vertical;" parent="WIyWlLk6GJQsqaUBKTNV-1" source="h3Knv5n8pHwy7ARHDvC1-28" target="h3Knv5n8pHwy7ARHDvC1-18" edge="1">
          <mxGeometry relative="1" as="geometry" />
        </mxCell>
        <mxCell id="h3Knv5n8pHwy7ARHDvC1-28" value="write ( to n+i" style="whiteSpace=wrap;html=1;strokeWidth=2;rounded=1;arcSize=12;" parent="WIyWlLk6GJQsqaUBKTNV-1" vertex="1">
          <mxGeometry x="630" y="630" width="120" height="60" as="geometry" />
        </mxCell>
        <mxCell id="h3Knv5n8pHwy7ARHDvC1-32" value="" style="edgeStyle=none;rounded=0;orthogonalLoop=1;jettySize=auto;html=1;elbow=vertical;" parent="WIyWlLk6GJQsqaUBKTNV-1" source="h3Knv5n8pHwy7ARHDvC1-30" target="h3Knv5n8pHwy7ARHDvC1-16" edge="1">
          <mxGeometry relative="1" as="geometry" />
        </mxCell>
        <mxCell id="h3Knv5n8pHwy7ARHDvC1-30" value="i++" style="whiteSpace=wrap;html=1;strokeWidth=2;rounded=1;arcSize=12;" parent="WIyWlLk6GJQsqaUBKTNV-1" vertex="1">
          <mxGeometry x="440" y="504.5" width="120" height="60" as="geometry" />
        </mxCell>
      </root>
    </mxGraphModel>
  </diagram>
</mxfile>
